<?xml version="1.0" encoding="UTF-8"?>
<svg id="Layer_1" data-name="Layer 1" xmlns="http://www.w3.org/2000/svg" viewBox="0 0 829.61 207.92">
  <defs>
    <style>
      .cls-1 {
        fill: #e58800;
      }

      .cls-1, .cls-2 {
        stroke-width: 0px;
      }

      .cls-2 {
        fill: #2e3038;
      }
    </style>
  </defs>
  <g>
    <path class="cls-2" d="m0,206.09V72.55h39.7c9.02,0,16.86,1.74,23.51,5.21,6.65,3.48,11.8,8.32,15.46,14.54s5.49,13.54,5.49,21.95v49.94c0,8.42-1.83,15.76-5.49,22.04-3.66,6.28-8.81,11.16-15.46,14.63-6.65,3.48-14.48,5.21-23.51,5.21H0Zm22.87-20.49h16.83c6.59,0,11.83-1.92,15.73-5.76,3.9-3.84,5.85-9.06,5.85-15.64v-49.94c0-6.46-1.95-11.62-5.85-15.46-3.9-3.84-9.15-5.76-15.73-5.76h-16.83v92.56Z"/>
    <path class="cls-2" d="m151.1,207.92c-8.54,0-15.98-1.65-22.32-4.94-6.34-3.29-11.25-7.96-14.73-13.99s-5.21-13.14-5.21-21.31v-23.78c0-8.17,1.74-15.27,5.21-21.31s8.38-10.7,14.73-13.99c6.34-3.29,13.78-4.94,22.32-4.94s15.76,1.65,22.04,4.94c6.28,3.29,11.16,7.9,14.63,13.81,3.48,5.92,5.21,12.84,5.21,20.76v18.29h-62.2v6.95c0,6.83,1.77,11.98,5.3,15.46,3.54,3.48,8.54,5.21,15,5.21,4.76,0,8.81-.82,12.17-2.47,3.35-1.65,5.33-4.05,5.95-7.23h22.68c-1.59,8.66-6.1,15.58-13.54,20.76-7.44,5.18-16.53,7.77-27.26,7.77Zm-20.31-64.76v3.48l40.25-.18v-3.48c0-6.95-1.71-12.32-5.12-16.1-3.42-3.78-8.35-5.67-14.82-5.67s-11.77,1.92-15.18,5.76c-3.42,3.84-5.12,9.24-5.12,16.19Z"/>
    <path class="cls-2" d="m260.87,207.92c-8.54,0-15.98-1.65-22.32-4.94-6.34-3.29-11.25-7.96-14.73-13.99s-5.21-13.14-5.21-21.31v-23.78c0-8.17,1.74-15.27,5.21-21.31s8.38-10.7,14.73-13.99c6.34-3.29,13.78-4.94,22.32-4.94s15.76,1.65,22.04,4.94c6.28,3.29,11.16,7.9,14.63,13.81,3.48,5.92,5.21,12.84,5.21,20.76v18.29h-62.2v6.95c0,6.83,1.77,11.98,5.3,15.46,3.54,3.48,8.54,5.21,15,5.21,4.76,0,8.81-.82,12.16-2.47,3.35-1.65,5.33-4.05,5.95-7.23h22.68c-1.59,8.66-6.1,15.58-13.54,20.76-7.44,5.18-16.53,7.77-27.26,7.77Zm-20.31-64.76v3.48l40.25-.18v-3.48c0-6.95-1.71-12.32-5.12-16.1-3.41-3.78-8.35-5.67-14.82-5.67s-11.77,1.92-15.18,5.76c-3.42,3.84-5.12,9.24-5.12,16.19Z"/>
    <path class="cls-2" d="m329.65,206.09v-100.61h22.32v18.84c1.22-6.34,4.21-11.37,8.96-15.09,4.76-3.72,10.79-5.58,18.11-5.58,9.88,0,17.77,3.29,23.69,9.88,5.91,6.59,8.87,15.43,8.87,26.52v66.04h-22.87v-63.3c0-6.22-1.62-11-4.85-14.36-3.23-3.35-7.59-5.03-13.08-5.03s-10.22,1.71-13.45,5.12c-3.23,3.42-4.85,8.29-4.85,14.63v62.93h-22.87Z"/>
    <path class="cls-2" d="m429.35,207.64v-102.26h22.87v41.16h16.1l23.96-39.51h25.43l-29.82,48.66,30.92,51.95h-25.98l-24.51-41.71h-16.1v41.71h-22.87Z"/>
    <path class="cls-2" d="m568.01,207.74c-12.93,0-23.17-3.63-30.73-10.88-7.56-7.25-11.34-17.04-11.34-29.36v-23.42c0-12.44,3.78-22.25,11.34-29.45,7.56-7.19,17.8-10.79,30.73-10.79s23.17,3.6,30.73,10.79c7.56,7.2,11.34,17.01,11.34,29.45v23.42c0,12.32-3.78,22.11-11.34,29.36-7.56,7.26-17.81,10.88-30.73,10.88Zm0-19.94c6.1,0,10.82-1.67,14.18-5.03s5.03-8.2,5.03-14.54v-24.88c0-6.34-1.68-11.19-5.03-14.54-3.36-3.35-8.08-5.03-14.18-5.03s-10.83,1.68-14.18,5.03c-3.36,3.36-5.03,8.2-5.03,14.54v24.88c0,6.34,1.68,11.19,5.03,14.54,3.35,3.36,8.08,5.03,14.18,5.03Z"/>
    <path class="cls-2" d="m668.63,207.92c-9.76,0-17.65-3.48-23.69-10.43-6.04-6.95-9.06-16.28-9.06-27.99v-27.26c0-11.83,2.99-21.22,8.96-28.17,5.97-6.95,13.9-10.43,23.78-10.43,6.95,0,12.83,1.77,17.65,5.31,4.82,3.54,8.2,8.48,10.15,14.82l-.73-23.05v-28.17h22.87v133.54h-22.32v-18.29c-1.83,6.34-5.12,11.28-9.88,14.82-4.76,3.54-10.67,5.3-17.75,5.3Zm8.6-19.76c5.85,0,10.4-1.77,13.63-5.31,3.23-3.54,4.85-8.53,4.85-15v-24.15c0-6.46-1.62-11.46-4.85-15-3.23-3.54-7.77-5.31-13.63-5.31s-10.4,1.59-13.63,4.76c-3.23,3.17-4.85,8.05-4.85,14.63v25.98c0,6.59,1.61,11.46,4.85,14.63,3.23,3.17,7.77,4.76,13.63,4.76Z"/>
    <path class="cls-2" d="m787.72,207.92c-8.54,0-15.98-1.65-22.32-4.94-6.34-3.29-11.25-7.96-14.73-13.99-3.48-6.04-5.21-13.14-5.21-21.31v-23.78c0-8.17,1.74-15.27,5.21-21.31,3.48-6.04,8.38-10.7,14.73-13.99,6.34-3.29,13.78-4.94,22.32-4.94s15.76,1.65,22.04,4.94c6.28,3.29,11.16,7.9,14.63,13.81,3.48,5.92,5.21,12.84,5.21,20.76v18.29h-62.2v6.95c0,6.83,1.77,11.98,5.3,15.46,3.54,3.48,8.54,5.21,15,5.21,4.76,0,8.81-.82,12.17-2.47,3.35-1.65,5.33-4.05,5.95-7.23h22.68c-1.59,8.66-6.1,15.58-13.54,20.76-7.44,5.18-16.53,7.77-27.26,7.77Zm-20.31-64.76v3.48l40.25-.18v-3.48c0-6.95-1.71-12.32-5.12-16.1-3.42-3.78-8.35-5.67-14.82-5.67s-11.77,1.92-15.18,5.76c-3.42,3.84-5.12,9.24-5.12,16.19Z"/>
  </g>
  <path class="cls-1" d="m495.73,66.57c.04,2.64-1.05,3.82-3.82,3.97-25.25,1.39-47.28-5.37-64.11-25.26-.98-1.16-1.75-1.77-2.55-1.74-.79-.03-1.56.58-2.54,1.74-16.83,19.89-38.86,26.65-64.11,25.26-2.78-.15-3.86-1.33-3.83-3.97.05-3.48.02-6.97.02-11.48.4-3.24-1.83-8.52.9-11.52,2.6-2.87,7.84-.84,11.91-.97,23.6-.76,39.51-14.53,43.29-38.01.59-3.65,1.97-4.7,5.42-4.58,2.98.11,5.96.17,8.94.17s5.97-.06,8.95-.17c3.45-.12,4.83.93,5.42,4.58,3.78,23.48,19.69,37.25,43.29,38.01,4.06.13,9.31-1.9,11.91.97,2.72,3,.5,8.28.9,11.52,0,4.51-.03,8,.01,11.48Z"/>
</svg>